<?xml version="1.0" encoding="iso-8859-1"?>
<!-- Generator: Adobe Illustrator 16.0.0, SVG Export Plug-In . SVG Version: 6.00 Build 0)  -->
<!DOCTYPE svg PUBLIC "-//W3C//DTD SVG 1.1//EN" "http://www.w3.org/Graphics/SVG/1.1/DTD/svg11.dtd">
<svg version="1.1" id="Capa_1" xmlns="http://www.w3.org/2000/svg" xmlns:xlink="http://www.w3.org/1999/xlink" x="0px" y="0px"
	 width="436.141px" height="436.141px" viewBox="0 0 436.141 436.141" style="enable-background:new 0 0 436.141 436.141;"
	 xml:space="preserve">
<g>
	<g>
		<path d="M107.359,73.07c-29.293,0-56.619,15.509-76.936,43.67C10.804,143.931,0,179.917,0,218.07
			c0,38.152,10.805,74.141,30.424,101.33c20.316,28.162,47.642,43.67,76.935,43.67c29.297,0,56.619-15.508,76.939-43.67
			c19.618-27.189,30.421-63.178,30.421-101.33c0-38.153-10.803-74.139-30.421-101.33C163.978,88.579,136.656,73.07,107.359,73.07z
			 M168.336,307.885c-16.521,22.893-38.174,35.502-60.977,35.502c-22.803,0-44.455-12.609-60.976-35.502
			c-17.218-23.869-26.701-55.762-26.701-89.814c0-34.052,9.482-65.949,26.701-89.813c16.521-22.895,38.173-35.504,60.976-35.504
			c22.803,0,44.456,12.609,60.977,35.504c17.219,23.864,26.701,55.761,26.701,89.813
			C195.037,252.123,185.554,284.016,168.336,307.885z"/>
		<path d="M107.359,168.863c-27.175,0-49.205,22.029-49.205,49.208c0,15.281,6.968,28.937,17.898,37.963
			c-0.205-1.174-0.164-2.348,0.176-3.479c1.736-5.856,10.479-8.424,19.532-5.737c9.05,2.683,14.978,9.608,13.238,15.465
			c-0.622,2.097-2.151,3.763-4.261,4.925c0.867,0.045,1.742,0.07,2.621,0.07c27.179,0,49.209-22.031,49.209-49.205
			C156.568,190.894,134.538,168.863,107.359,168.863z M136.819,196.591c-1.74,5.856-10.485,8.425-19.534,5.74
			c-9.052-2.687-14.979-9.611-13.24-15.467c1.738-5.857,10.483-8.427,19.534-5.741C132.629,183.811,138.556,190.734,136.819,196.591
			z"/>
		<path d="M405.717,116.74c-20.318-28.161-47.643-43.67-76.936-43.67c-29.297,0-56.619,15.509-76.938,43.67
			c-19.619,27.191-30.422,63.177-30.422,101.33c0,38.152,10.803,74.141,30.422,101.33c20.319,28.162,47.642,43.67,76.938,43.67
			c29.293,0,56.617-15.508,76.936-43.67c19.617-27.189,30.424-63.178,30.424-101.33C436.141,179.917,425.334,143.931,405.717,116.74
			z M389.758,307.885c-16.521,22.893-38.176,35.502-60.977,35.502c-22.803,0-44.457-12.609-60.978-35.502
			c-17.219-23.869-26.7-55.763-26.7-89.814s9.481-65.949,26.7-89.813c16.521-22.895,38.175-35.504,60.978-35.504
			c22.801,0,44.455,12.609,60.977,35.504c17.217,23.864,26.699,55.761,26.699,89.813
			C416.457,252.123,406.975,284.016,389.758,307.885z"/>
		<path d="M328.781,168.863c-27.18,0-49.209,22.029-49.209,49.208c0,15.281,6.967,28.937,17.898,37.963
			c-0.203-1.174-0.162-2.348,0.176-3.479c1.738-5.856,10.482-8.424,19.531-5.737c9.053,2.683,14.979,9.608,13.242,15.465
			c-0.623,2.097-2.152,3.763-4.264,4.925c0.869,0.045,1.744,0.07,2.623,0.07c27.174,0,49.205-22.031,49.205-49.205
			C377.986,190.894,355.955,168.863,328.781,168.863z M358.24,196.591c-1.74,5.856-10.484,8.425-19.537,5.74
			c-9.049-2.687-14.979-9.611-13.236-15.467c1.736-5.857,10.482-8.427,19.529-5.741C354.049,183.811,359.975,190.734,358.24,196.591
			z"/>
	</g>
</g>
<g>
</g>
<g>
</g>
<g>
</g>
<g>
</g>
<g>
</g>
<g>
</g>
<g>
</g>
<g>
</g>
<g>
</g>
<g>
</g>
<g>
</g>
<g>
</g>
<g>
</g>
<g>
</g>
<g>
</g>
</svg>
