<?xml version="1.0" encoding="iso-8859-1"?>
<!-- Generator: Adobe Illustrator 19.0.0, SVG Export Plug-In . SVG Version: 6.00 Build 0)  -->
<svg version="1.1" id="Layer_1" xmlns="http://www.w3.org/2000/svg" xmlns:xlink="http://www.w3.org/1999/xlink" x="0px" y="0px"
	 viewBox="0 0 512 512" style="enable-background:new 0 0 512 512;" xml:space="preserve">
<g>
	<g>
		<path d="M357.435,114.946l-32.709,16.355l13.236,26.473c-37.103,26.036-59.535,68.373-59.535,114.259v101.845
			c0,15.665-12.744,28.407-28.407,28.407c-15.664,0-28.407-12.743-28.407-28.407v-13.446h18.286v-36.571h-18.286V299.48h18.286
			v-36.571h-18.286v-24.381h18.286v-36.571h-18.286V54.857C221.613,24.609,197.004,0,166.755,0s-54.857,24.609-54.857,54.857
			c0,3.304-2.792,6.095-6.095,6.095H81.422L57.041,97.524h48.762c23.526,0,42.667-19.14,42.667-42.667
			c0-10.083,8.203-18.286,18.286-18.286c10.083,0,18.286,8.203,18.286,18.286v147.099h-18.286v36.571h18.286v24.381h-18.286v36.571
			h18.286v24.381h-18.286v36.571h18.286v45.08c0,58.717,47.77,106.487,106.486,106.487c58.718,0,106.489-47.77,106.489-106.487
			v-66.498c0-13.672,7.083-24.809,14.268-32.595l9.965,19.929l32.711-16.355L357.435,114.946z M361.446,339.016v66.498
			c0,38.551-31.365,69.916-69.917,69.916c-27.991,0-52.192-16.534-63.352-40.349c6.83,2.445,14.182,3.778,21.843,3.778
			c35.83,0,64.979-29.149,64.979-64.979V272.034c0-31.985,14.796-61.657,39.559-81.065c0.001,0,35.969,72.348,40.432,81.451
			C380.938,284.47,361.446,306.961,361.446,339.016z"/>
	</g>
</g>
<g>
</g>
<g>
</g>
<g>
</g>
<g>
</g>
<g>
</g>
<g>
</g>
<g>
</g>
<g>
</g>
<g>
</g>
<g>
</g>
<g>
</g>
<g>
</g>
<g>
</g>
<g>
</g>
<g>
</g>
</svg>
